<svg width="32" height="32" viewBox="0 0 32 32" fill="none" xmlns="http://www.w3.org/2000/svg">
<path d="M21.1736 16.112C22.5896 16.376 23.7536 17.084 24.6656 18.236C25.5776 19.388 26.0336 20.708 26.0336 22.196C26.0336 23.54 25.6976 24.728 25.0256 25.76C24.3776 26.768 23.4296 27.56 22.1816 28.136C20.9336 28.712 19.4576 29 17.7536 29H6.91759V3.872H17.2856C18.9896 3.872 20.4536 4.148 21.6776 4.7C22.9256 5.252 23.8616 6.02 24.4856 7.004C25.1336 7.988 25.4576 9.104 25.4576 10.352C25.4576 11.816 25.0616 13.04 24.2696 14.024C23.5016 15.008 22.4696 15.704 21.1736 16.112ZM11.9576 14.24H16.5656C17.7656 14.24 18.6896 13.976 19.3376 13.448C19.9856 12.896 20.3096 12.116 20.3096 11.108C20.3096 10.1 19.9856 9.32 19.3376 8.768C18.6896 8.216 17.7656 7.94 16.5656 7.94H11.9576V14.24ZM17.0336 24.896C18.2576 24.896 19.2056 24.608 19.8776 24.032C20.5736 23.456 20.9216 22.64 20.9216 21.584C20.9216 20.504 20.5616 19.664 19.8416 19.064C19.1216 18.44 18.1496 18.128 16.9256 18.128H11.9576V24.896H17.0336Z" fill="white"/>
<rect x="10" y="6" width="11" height="9" fill="white"/>
<rect x="10" y="18" width="11" height="8" fill="white"/>
</svg>
