<svg xmlns="http://www.w3.org/2000/svg" width="24" height="24" fill="none" xmlns:v="https://vecta.io/nano"><path d="M15.706 21.078v-3.515c0-1.004.106-1.406-.53-2.01C18.14 15.253 21 14.148 21 9.528c-.001-1.2-.495-2.353-1.376-3.214a4.02 4.02 0 0 0-.106-3.214s-1.165-.3-3.706 1.306a13.71 13.71 0 0 0-6.565 0C6.706 2.8 5.54 3.1 5.54 3.1a4.02 4.02 0 0 0-.106 3.214c-.882.86-1.375 2.014-1.376 3.214 0 4.62 2.86 5.725 5.824 6.026-.635.603-.635 1.205-.53 2.01v3.515m0-2.01C4.8 20.475 4.8 16.558 3 16.056l6.353 3.013z" stroke="#fff" stroke-width="2" stroke-linecap="round" stroke-linejoin="round"/></svg>