<svg xmlns="http://www.w3.org/2000/svg" width="730" height="207" fill="#fefefe" xmlns:v="https://vecta.io/nano"><path d="M549.263 154h-20.16l-45.648-68.976V154h-20.16V53.344h20.16l45.648 69.12v-69.12h20.16V154zm40.083-84.24v25.2h33.84v15.984h-33.84v26.64h38.16V154h-58.32V53.344h58.32V69.76h-38.16zm91.185 85.248c-7.008 0-13.344-1.2-19.008-3.6-5.568-2.4-9.984-5.856-13.248-10.368s-4.944-9.84-5.04-15.984h21.6c.288 4.128 1.728 7.392 4.32 9.792 2.688 2.4 6.336 3.6 10.944 3.6 4.704 0 8.4-1.104 11.088-3.312 2.688-2.304 4.032-5.28 4.032-8.928 0-2.976-.912-5.424-2.736-7.344s-4.128-3.408-6.912-4.464c-2.688-1.152-6.432-2.4-11.232-3.744-6.528-1.92-11.856-3.792-15.984-5.616-4.032-1.92-7.536-4.752-10.512-8.496-2.88-3.84-4.32-8.928-4.32-15.264 0-5.952 1.488-11.136 4.464-15.552s7.152-7.776 12.528-10.08c5.376-2.4 11.52-3.6 18.432-3.6 10.368 0 18.768 2.544 25.2 7.632 6.528 4.992 10.128 12 10.8 21.024H692.77c-.192-3.456-1.68-6.288-4.464-8.496-2.688-2.304-6.288-3.456-10.8-3.456-3.936 0-7.104 1.008-9.504 3.024-2.304 2.016-3.456 4.944-3.456 8.784 0 2.688.864 4.944 2.592 6.768 1.824 1.728 4.032 3.168 6.624 4.32 2.688 1.056 6.432 2.304 11.232 3.744 6.528 1.92 11.856 3.84 15.984 5.76s7.68 4.8 10.656 8.64 4.464 8.88 4.464 15.12c0 5.376-1.392 10.368-4.176 14.976s-6.864 8.304-12.24 11.088c-5.376 2.688-11.76 4.032-19.152 4.032zm-339.91 51.008c-18.816 0-36.096-4.416-51.84-13.248s-28.224-21.024-37.44-36.576c-9.216-15.744-13.824-33.504-13.824-53.28 0-19.584 4.608-37.152 13.824-52.704 9.216-15.744 21.696-28.032 37.44-36.864S321.806.096 340.622.096c19.008 0 36.288 4.416 51.84 13.248 15.744 8.832 28.128 21.12 37.152 36.864 9.216 15.552 13.824 33.12 13.824 52.704 0 19.776-4.608 37.536-13.824 53.28-9.024 15.552-21.408 27.744-37.152 36.576s-33.024 13.248-51.84 13.248zm0-36c12.096 0 22.752-2.688 31.968-8.064 9.216-5.568 16.416-13.44 21.6-23.616s7.776-21.984 7.776-35.424-2.592-25.152-7.776-35.136c-5.184-10.176-12.384-17.952-21.6-23.328s-19.872-8.064-31.968-8.064-22.848 2.688-32.256 8.064c-9.216 5.376-16.416 13.152-21.6 23.328C281.582 77.76 279 89.472 279 102.912s2.592 25.248 7.776 35.424 12.384 18.048 21.6 23.616c9.408 5.376 20.16 8.064 32.256 8.064zM73.03 102.448c5.664 1.056 10.32 3.888 13.968 8.496s5.472 9.888 5.472 15.84c0 5.376-1.344 10.128-4.032 14.256-2.592 4.032-6.384 7.2-11.376 9.504S66.166 154 59.35 154H16.006V53.488h41.472c6.816 0 12.672 1.104 17.568 3.312 4.992 2.208 8.736 5.28 11.232 9.216 2.592 3.936 3.888 8.4 3.888 13.392 0 5.856-1.584 10.752-4.752 14.688-3.072 3.936-7.2 6.72-12.384 8.352zM36.166 94.96h18.432c4.8 0 8.496-1.056 11.088-3.168 2.592-2.208 3.888-5.328 3.888-9.36s-1.296-7.152-3.888-9.36-6.288-3.312-11.088-3.312H36.166v25.2zm20.304 42.624c4.896 0 8.688-1.152 11.376-3.456 2.784-2.304 4.176-5.568 4.176-9.792 0-4.32-1.44-7.68-4.32-10.08-2.88-2.496-6.768-3.744-11.664-3.744H36.166v27.072H56.47zM160.378 154l-22.176-39.168h-9.504V154h-20.16V53.488h37.728c7.776 0 14.4 1.392 19.872 4.176 5.472 2.688 9.552 6.384 12.24 11.088 2.784 4.608 4.176 9.792 4.176 15.552 0 6.624-1.92 12.624-5.76 18-3.84 5.28-9.552 8.928-17.136 10.944L183.706 154h-23.328zm-31.68-54.288h16.848c5.472 0 9.552-1.296 12.24-3.888 2.688-2.688 4.032-6.384 4.032-11.088 0-4.608-1.344-8.16-4.032-10.656-2.688-2.592-6.768-3.888-12.24-3.888h-16.848v29.52zm92.25-46.224V154h-20.16V53.488h20.16z"/><path d="M31 67h40v29H31zm0 41h43v31H31z"/></svg>