<svg width="24" height="24" viewBox="0 0 24 24" fill="none" xmlns="http://www.w3.org/2000/svg">
<path d="M3 21.9789L4.29899 17.5972C3.17631 15.7302 2.77017 13.5193 3.1561 11.3755C3.54202 9.23168 4.69374 7.30089 6.39712 5.94211C8.1005 4.58333 10.2396 3.88902 12.4168 3.98827C14.5939 4.08752 16.6609 4.97359 18.2334 6.48172C19.806 7.98985 20.777 10.0174 20.9661 12.1874C21.1551 14.3574 20.5493 16.5222 19.2612 18.2793C17.9731 20.0364 16.0905 21.2662 13.9633 21.74C11.8361 22.2139 9.60906 21.8995 7.69635 20.8554L3 21.9789Z" stroke="#0059DF" stroke-width="2" stroke-linecap="round" stroke-linejoin="round"/>
<path d="M7.99609 14.1143L10.9938 11.8672L12.9922 14.1143L15.9899 11.8672" stroke="#0059DF" stroke-width="2" stroke-linecap="round" stroke-linejoin="round"/>
</svg>
