<svg xmlns="http://www.w3.org/2000/svg" width="1288" height="584" fill="none" xmlns:v="https://vecta.io/nano"><path d="M645.26 1287.6c-117.6 0-225.6-27.6-324-82.8s-176.4-131.4-234-228.6C29.66 877.8.86 766.8.86 643.2c0-122.4 28.8-232.2 86.4-329.4 57.6-98.4 135.6-175.2 234-230.4S527.66.6 645.26.6c118.8 0 226.8 27.6 324 82.8 98.4 55.2 175.8 132 232.2 230.4 57.6 97.2 86.4 207 86.4 329.4 0 123.6-28.8 234.6-86.4 333-56.4 97.2-133.8 173.4-232.2 228.6s-206.4 82.8-324 82.8zm0-225c75.6 0 142.2-16.8 199.8-50.4 57.6-34.8 102.6-84 135-147.6s48.6-137.4 48.6-221.4-16.2-157.2-48.6-219.6c-32.4-63.6-77.4-112.2-135-145.8s-124.2-50.4-199.8-50.4-142.8 16.8-201.6 50.4c-57.6 33.6-102.6 82.2-135 145.8-32.4 62.4-48.6 135.6-48.6 219.6s16.2 157.8 48.6 221.4 77.4 112.8 135 147.6c58.8 33.6 126 50.4 201.6 50.4z" fill="#fefefe"/></svg>