<svg xmlns="http://www.w3.org/2000/svg" width="24" height="24" fill="none" xmlns:v="https://vecta.io/nano"><g stroke-width="2" stroke-linejoin="round"><path d="M3 21l1.65-3.8A9 9 0 0 1 5.945 5.366a9 9 0 0 1 11.903-.196 9 9 0 0 1 1.684 11.785A9 9 0 0 1 8.05 20.1L3 21z" stroke="url(#A)"/><path d="M9 10a.5.5 0 0 0 .5.5.5.5 0 0 0 .5-.5V9a.5.5 0 0 0-.5-.5.5.5 0 0 0-.5.5v1zm0 0a5 5 0 0 0 5 5h1a.5.5 0 0 0 .5-.5.5.5 0 0 0-.5-.5h-1a.5.5 0 0 0-.5.5.5.5 0 0 0 .5.5" stroke="url(#B)" stroke-linecap="round"/></g><defs><linearGradient id="A" x1="12.004" y1="3.017" x2="12.004" y2="21.017" gradientUnits="userSpaceOnUse"><stop stop-color="#0ec244"/></linearGradient><linearGradient id="B" x1="12.25" y1="8.5" x2="12.25" y2="15" gradientUnits="userSpaceOnUse"><stop stop-color="#0ec244"/></linearGradient></defs></svg>